<?xml version="1.0" encoding="UTF-8"?><svg xmlns="http://www.w3.org/2000/svg" viewBox="0 0 2531.7 2531.7"><g id="a"><g id="b"><path d="M2141.05,2512.65H398.95c-204.4,0-370.1-165.7-370.1-370.1V400.45C28.85,196.05,194.55,30.35,398.95,30.35h1742.1c204.4,0,370.1,165.7,370.1,370.1v1742.1c0,204.4-165.7,370.1-370.1,370.1Z" style="stroke:#00ff04; stroke-miterlimit:10;"/></g><g id="c"><path d="M921.25,1242.65h-389.7c-176.6,0-319.8-143.2-319.8-319.8v-389.6c0-176.6,143.2-319.8,319.8-319.8h389.7c176.6,0,319.8,143.2,319.8,319.8v389.7c0,176.6-143.2,319.7-319.8,319.7Z" style="fill:#f60; stroke:#00ff04; stroke-miterlimit:10;"/></g><g id="d"><path d="M2009.45,1217.05h-389.7c-176.6,0-319.8-143.2-319.8-319.8V507.65c0-176.6,143.2-319.8,319.8-319.8h389.7c176.6,0,319.8,143.2,319.8,319.8v389.7c-.1,176.6-143.2,319.7-319.8,319.7Z" style="fill:red; stroke:#00ff04; stroke-miterlimit:10;"/></g><g id="e"><path d="M2029.75,2339.65h-389.7c-176.6,0-319.8-143.2-319.8-319.8v-389.7c0-176.6,143.2-319.8,319.8-319.8h389.7c176.6,0,319.8,143.2,319.8,319.8v389.7c-.1,176.7-143.2,319.8-319.8,319.8Z" style="fill:#0c0; stroke:#00ff04; stroke-miterlimit:10;"/></g><g id="f"><path d="M921.25,2339.65h-389.7c-176.6,0-319.8-143.2-319.8-319.8v-389.7c0-176.6,143.2-319.8,319.8-319.8h389.7c176.6,0,319.8,143.2,319.8,319.8v389.7c0,176.7-143.2,319.8-319.8,319.8Z" style="fill:#30f; stroke:#00ff04; stroke-miterlimit:10;"/></g><g id="g"><path d="M985.85,2415.25L116.45,1545.85c-154.6-154.6-154.6-405.4,0-560L985.85,116.45c154.6-154.6,405.4-154.6,560,0l869.4,869.4c154.6,154.6,154.6,405.4,0,560l-869.4,869.4c-154.6,154.6-405.3,154.6-560,0Z" style="fill:#0200df; stroke:#00ff04; stroke-miterlimit:10;"/></g></g><g id="h"><g><path d="M494.77,1379.04c0,34.39-8.86,65.29-26.57,92.7-17.71,27.41-43.63,48.87-77.77,64.39s-74.6,23.27-121.4,23.27c-56.11,0-102.4-10.6-138.86-31.8-25.86-15.25-46.87-35.62-63.03-61.09-16.16-25.47-24.24-50.23-24.24-74.28,0-13.96,4.85-25.92,14.54-35.88,9.7-9.95,22.04-14.93,37.04-14.93,12.15,0,22.43,3.88,30.84,11.64,8.4,7.76,15.58,19.27,21.53,34.52,7.24,18.1,15.06,33.23,23.47,45.38,8.4,12.16,20.23,22.17,35.49,30.06,15.25,7.89,35.3,11.83,60.12,11.83,34.13,0,61.86-7.95,83.2-23.85s32-35.74,32-59.54c0-18.87-5.76-34.19-17.26-45.96-11.51-11.76-26.37-20.75-44.6-26.96-18.23-6.21-42.6-12.8-73.11-19.78-40.86-9.56-75.05-20.75-102.59-33.55-27.54-12.8-49.39-30.25-65.55-52.36-16.16-22.11-24.24-49.58-24.24-82.42s8.53-59.08,25.6-83.39c17.07-24.3,41.76-42.99,74.08-56.05,32.32-13.05,70.33-19.59,114.03-19.59,34.91,0,65.09,4.33,90.57,12.99,25.47,8.67,46.6,20.17,63.42,34.52,16.81,14.35,29.09,29.42,36.85,45.19,7.76,15.78,11.64,31.16,11.64,46.16,0,13.71-4.85,26.05-14.54,37.04-9.7,10.99-21.79,16.48-36.27,16.48-13.19,0-23.21-3.3-30.06-9.89-6.85-6.59-14.29-17.39-22.3-32.39-10.35-21.46-22.76-38.2-37.23-50.23-14.48-12.02-37.76-18.04-69.82-18.04-29.74,0-53.72,6.53-71.95,19.59-18.23,13.06-27.34,28.77-27.34,47.13,0,11.38,3.1,21.21,9.31,29.48,6.21,8.28,14.74,15.39,25.6,21.33,10.86,5.95,21.85,10.61,32.97,13.96,11.11,3.36,29.48,8.28,55.08,14.74,32.06,7.5,61.09,15.78,87.08,24.82,25.99,9.05,48.1,20.04,66.33,32.97,18.23,12.93,32.45,29.28,42.67,49.07,10.21,19.78,15.32,44.02,15.32,72.72Z" style="fill:#fff;"/><path d="M1024.6,1379.04c0,34.39-8.86,65.29-26.57,92.7-17.71,27.41-43.63,48.87-77.77,64.39s-74.6,23.27-121.4,23.27c-56.11,0-102.4-10.6-138.86-31.8-25.86-15.25-46.87-35.62-63.03-61.09-16.16-25.47-24.24-50.23-24.24-74.28,0-13.96,4.85-25.92,14.54-35.88,9.7-9.95,22.04-14.93,37.04-14.93,12.15,0,22.43,3.88,30.84,11.64,8.4,7.76,15.58,19.27,21.53,34.52,7.24,18.1,15.06,33.23,23.47,45.38,8.4,12.16,20.23,22.17,35.49,30.06,15.25,7.89,35.3,11.83,60.12,11.83,34.13,0,61.86-7.95,83.2-23.85s32-35.74,32-59.54c0-18.87-5.76-34.19-17.26-45.96-11.51-11.76-26.37-20.75-44.6-26.96-18.23-6.21-42.6-12.8-73.11-19.78-40.86-9.56-75.05-20.75-102.59-33.55-27.54-12.8-49.39-30.25-65.55-52.36-16.16-22.11-24.24-49.58-24.24-82.42s8.53-59.08,25.6-83.39c17.07-24.3,41.76-42.99,74.08-56.05,32.32-13.05,70.33-19.59,114.03-19.59,34.91,0,65.09,4.33,90.57,12.99,25.47,8.67,46.6,20.17,63.42,34.52,16.81,14.35,29.09,29.42,36.85,45.19,7.76,15.78,11.64,31.16,11.64,46.16,0,13.71-4.85,26.05-14.54,37.04-9.7,10.99-21.79,16.48-36.27,16.48-13.19,0-23.21-3.3-30.06-9.89-6.85-6.59-14.29-17.39-22.3-32.39-10.35-21.46-22.76-38.2-37.23-50.23-14.48-12.02-37.76-18.04-69.82-18.04-29.74,0-53.72,6.53-71.95,19.59-18.23,13.06-27.34,28.77-27.34,47.13,0,11.38,3.1,21.21,9.31,29.48,6.21,8.28,14.74,15.39,25.6,21.33,10.86,5.95,21.85,10.61,32.97,13.96,11.11,3.36,29.48,8.28,55.08,14.74,32.06,7.5,61.09,15.78,87.08,24.82,25.99,9.05,48.1,20.04,66.33,32.97,18.23,12.93,32.45,29.28,42.67,49.07,10.21,19.78,15.32,44.02,15.32,72.72Z" style="fill:#fff;"/><path d="M1193.71,981.09h150.1c39.04,0,72.53,3.62,100.46,10.86,27.93,7.24,53.26,20.82,76.02,40.73,59.21,50.68,88.82,127.74,88.82,231.17,0,34.13-2.98,65.29-8.92,93.48-5.95,28.19-15.13,53.59-27.54,76.21-12.41,22.63-28.31,42.86-47.71,60.7-15.26,13.71-31.94,24.7-50.03,32.97-18.1,8.28-37.56,14.1-58.37,17.45-20.82,3.36-44.28,5.04-70.4,5.04h-150.1c-20.94,0-36.72-3.16-47.32-9.5-10.61-6.33-17.52-15.25-20.75-26.76-3.24-11.5-4.85-26.44-4.85-44.8v-416.96c0-24.82,5.56-42.79,16.68-53.91s29.09-16.68,53.91-16.68Zm44.6,91.15v385.93h87.27c19.13,0,34.13-.51,44.99-1.55,10.86-1.03,22.11-3.62,33.74-7.76,11.64-4.13,21.72-9.95,30.25-17.45,38.53-32.58,57.79-88.69,57.79-168.33,0-56.11-8.47-98.13-25.4-126.06-16.94-27.93-37.82-45.7-62.64-53.33-24.82-7.62-54.82-11.44-89.98-11.44h-76.02Z" style="fill:#fff;"/><path d="M1998.53,1370.12h-207.12c.25,24.05,5.1,45.25,14.54,63.61,9.44,18.36,21.97,32.19,37.62,41.5,15.64,9.31,32.9,13.96,51.78,13.96,12.67,0,24.24-1.49,34.71-4.46,10.47-2.97,20.62-7.62,30.45-13.96,9.82-6.33,18.87-13.12,27.15-20.36,8.27-7.24,19-17.07,32.19-29.48,5.43-4.65,13.19-6.98,23.27-6.98,10.86,0,19.65,2.98,26.38,8.92,6.72,5.95,10.08,14.35,10.08,25.21,0,9.57-3.75,20.75-11.25,33.55-7.5,12.8-18.81,25.08-33.94,36.85-15.13,11.77-34.13,21.53-57.02,29.28-22.88,7.76-49.2,11.64-78.93,11.64-68.01,0-120.89-19.39-158.64-58.18-37.76-38.79-56.63-91.4-56.63-157.86,0-31.28,4.65-60.31,13.96-87.08s22.88-49.71,40.73-68.85c17.84-19.13,39.82-33.81,65.94-44.02,26.11-10.21,55.08-15.32,86.88-15.32,41.37,0,76.86,8.73,106.47,26.18,29.6,17.45,51.78,40.02,66.52,67.68,14.74,27.67,22.11,55.85,22.11,84.55,0,26.64-7.63,43.9-22.88,51.78-15.26,7.89-36.72,11.83-64.39,11.83Zm-207.12-60.12h191.99c-2.59-36.2-12.35-63.28-29.28-81.26-16.94-17.97-39.24-26.96-66.91-26.96s-48.03,9.12-64.97,27.34c-16.94,18.23-27.22,45.19-30.83,80.87Z" style="fill:#fff;"/><path d="M2230.08,1194.81l85.72,240.48,92.31-250.95c7.24-20.17,14.35-34.45,21.33-42.86,6.98-8.4,17.58-12.61,31.81-12.61,13.44,0,24.88,4.53,34.33,13.58,9.44,9.05,14.16,19.53,14.16,31.42,0,4.65-.84,10.08-2.52,16.29-1.69,6.21-3.62,12.02-5.82,17.45-2.2,5.43-4.72,11.64-7.56,18.62l-101.62,252.11c-2.85,7.24-6.53,16.42-11.05,27.54-4.53,11.12-9.57,20.62-15.13,28.51-5.56,7.89-12.41,14.03-20.56,18.42-8.14,4.39-18.04,6.59-29.67,6.59-15,0-26.96-3.43-35.88-10.28-8.92-6.85-15.51-14.35-19.78-22.5-4.27-8.14-11.44-24.24-21.53-48.29l-100.84-249.4c-2.33-6.21-4.72-12.41-7.18-18.62-2.46-6.21-4.53-12.54-6.21-19.01-1.68-6.46-2.52-12.02-2.52-16.68,0-7.24,2.19-14.41,6.59-21.53,4.39-7.11,10.47-12.93,18.23-17.45,7.76-4.52,16.16-6.79,25.21-6.79,17.58,0,29.67,5.04,36.27,15.13s13.9,27.02,21.91,50.81Z" style="fill:#fff;"/></g></g></svg>